<svg xmlns="http://www.w3.org/2000/svg" viewBox="0 0 16.07 16.07"><defs><style>.cls-1{fill:#eef3f7;}.cls-2{fill:#475b6c;fill-rule:evenodd;}</style></defs><g id="Layer_2" data-name="Layer 2"><rect class="cls-1" width="16.07" height="16.07"/></g><g id="Layer_1" data-name="Layer 1"><path class="cls-2" d="M14,0H2A2,2,0,0,0,0,2V14a2,2,0,0,0,2,2H14a2,2,0,0,0,2-2V2A2,2,0,0,0,14,0ZM10.3,7.7l-3-3a.49.49,0,0,0-.7.7l.4.4.1.1L8.9,7.6s.5,0-.3.9h0l-.2.3L8,9.2,6.6,10.6a.49.49,0,0,0,.7.7l3-3A.37.37,0,0,0,10.3,7.7Z"/></g></svg>