<?xml version="1.0" encoding="utf-8"?>
<!-- Generator: Adobe Illustrator 24.1.2, SVG Export Plug-In . SVG Version: 6.00 Build 0)  -->
<svg version="1.1" id="Layer_1" xmlns="http://www.w3.org/2000/svg" xmlns:xlink="http://www.w3.org/1999/xlink" x="0px" y="0px"
	 viewBox="0 0 16 16" style="enable-background:new 0 0 16 16;" xml:space="preserve">
<style type="text/css">
	.st0{fill:#EEF3F7;}
	.st1{fill-rule:evenodd;clip-rule:evenodd;fill:#C2CBD3;}
</style>
<rect x="0" y="0" class="st0" width="16.1" height="16.1"/>
<path class="st1" d="M16,14V2c0-1.1-0.9-2-2-2H2C0.9,0,0,0.9,0,2v12c0,1.1,0.9,2,2,2h12C15.1,16,16,15.1,16,14z M10.3,7.7l-3-3
	c-0.2-0.2-0.5-0.2-0.7,0s-0.2,0.5,0,0.7L8,6.8c0.1,0.1,0.3,0.3,0.4,0.4l0.3,0.3l0,0C9.4,8.3,9,8.4,9,8.4l-1.8,1.7L7,10.3l-0.4,0.4
	c-0.2,0.2-0.2,0.5,0,0.7s0.5,0.2,0.7,0l3-3C10.5,8.2,10.5,7.8,10.3,7.7z"/>
</svg>
