<?xml version="1.0" encoding="utf-8"?>
<!-- Generator: Adobe Illustrator 24.1.2, SVG Export Plug-In . SVG Version: 6.00 Build 0)  -->
<svg version="1.1" id="Layer_1" xmlns="http://www.w3.org/2000/svg" xmlns:xlink="http://www.w3.org/1999/xlink" x="0px" y="0px"
	 viewBox="0 0 16 16" style="enable-background:new 0 0 16 16;" xml:space="preserve">
<style type="text/css">
	.st0{fill-rule:evenodd;clip-rule:evenodd;fill:#475B6C;}
</style>
<path class="st0" d="M2,16h12c1.1,0,2-0.9,2-2V2c0-1.1-0.9-2-2-2L2,0C0.9,0,0,0.9,0,2l0,12C0,15.1,0.9,16,2,16z M5.7,8.3l3,3
	c0.2,0.2,0.5,0.2,0.7,0c0.2-0.2,0.2-0.5,0-0.7L9,10.3l-0.1-0.1L7.1,8.4c0,0-0.5,0,0.3-0.9h0l0.3-0.3C7.7,7.1,7.9,6.9,8,6.8l1.4-1.4
	c0.2-0.2,0.2-0.5,0-0.7c-0.2-0.2-0.5-0.2-0.7,0l-3,3C5.5,7.8,5.5,8.2,5.7,8.3z"/>
</svg>
