<?xml version="1.0" encoding="utf-8"?>
<!-- Generator: Adobe Illustrator 24.1.2, SVG Export Plug-In . SVG Version: 6.00 Build 0)  -->
<svg version="1.1" id="Layer_1" xmlns="http://www.w3.org/2000/svg" xmlns:xlink="http://www.w3.org/1999/xlink" x="0px" y="0px"
	 viewBox="0 0 16 16" style="enable-background:new 0 0 16 16;" xml:space="preserve">
<style type="text/css">
	.st0{fill:#EEF3F7;}
	.st1{fill-rule:evenodd;clip-rule:evenodd;fill:#475B6C;}
</style>
<rect x="0" y="0" class="st0" width="16.1" height="16.1"/>
<path class="st1" d="M13.9,0.1H2.1c-1.1,0-2,0.9-2,2v11.9c0,1.1,0.9,2,2,2h11.9c1.1,0,2-0.9,2-2V2.1C15.9,1,15,0.1,13.9,0.1z
	 M13.9,14.9H2.1c-0.5,0-1-0.4-1-1V2.1c0-0.5,0.4-1,1-1h11.9c0.5,0,1,0.4,1,1v11.9 M10.3,7.7l-3-3c-0.2-0.2-0.5-0.2-0.7,0
	c-0.2,0.2-0.2,0.5,0,0.7L7,5.8l0.1,0.1l1.8,1.7c0,0,0.5,0-0.2,0.9h0L8.4,8.8C8.3,8.9,8.1,9.1,8,9.2l-1.4,1.4c-0.2,0.2-0.2,0.5,0,0.7
	c0.2,0.2,0.5,0.2,0.7,0l3-3C10.5,8.2,10.5,7.8,10.3,7.7z"/>
</svg>
