<svg xmlns="http://www.w3.org/2000/svg" width="21.708" height="19.296" viewBox="0 0 21.708 19.296">
  <path id="basket-shopping-simple-solid_1_" data-name="basket-shopping-simple-solid (1)" d="M9.162.1a.907.907,0,0,1,.384,1.22L6.471,7.231h8.766L12.162,1.316A.9.9,0,1,1,13.767.482l3.509,6.749H20.5a1.206,1.206,0,1,1,0,2.412l-1.956,7.82a2.441,2.441,0,0,1-2.34,1.828H5.469a2.4,2.4,0,0,1-2.307-1.828L1.206,9.643a1.206,1.206,0,1,1,0-2.412H4.432L7.941.482A.905.905,0,0,1,9.162.1ZM5.427,11.15a.9.9,0,1,0-.9-.9A.9.9,0,0,0,5.427,11.15ZM16.281,9.341a.9.9,0,1,0,.9.9A.9.9,0,0,0,16.281,9.341Z" transform="translate(0 0.006)" fill="#fff"/>
</svg>
