<svg xmlns="http://www.w3.org/2000/svg" width="32" height="32" viewBox="0 0 32 32">
  <g id="Group_1530" data-name="Group 1530" transform="translate(-798 -403)">
    <g id="Ellipse_86" data-name="Ellipse 86" transform="translate(798 403)" fill="none" stroke="#304659" stroke-width="1">
      <circle cx="16" cy="16" r="16" stroke="none"/>
      <circle cx="16" cy="16" r="15.5" fill="none"/>
    </g>
    <path id="Path_35" data-name="Path 35" d="M145.83,9.284h-1.208v1.208H143.41V9.284H142.2V8.073h1.208V6.865h1.212V8.073h1.208Zm0,4.777H142.2V12.849h3.628Zm3.865-2.668a10.814,10.814,0,0,0-.95-3.358,32.7,32.7,0,0,0-3.116-5.477c-.475-.7-1.612-2.225-1.612-2.225s-.087.11-.136.177c-.7.946-1.4,1.895-2.036,2.882a27.727,27.727,0,0,0-2.925,5.6,8.559,8.559,0,0,0-.6,3.059,5.049,5.049,0,0,0,.39,1.956,5.7,5.7,0,0,0,9.472,1.814,5.535,5.535,0,0,0,1.516-4.427" transform="translate(669.984 409.757)" fill="#304659"/>
  </g>
</svg>
