<svg xmlns="http://www.w3.org/2000/svg" xmlns:xlink="http://www.w3.org/1999/xlink" width="67.007" height="57" viewBox="0 0 67.007 57">
  <defs>
    <clipPath id="clip-path">
      <rect id="Rectangle_5" data-name="Rectangle 5" width="67.007" height="56.757" transform="translate(0 0)" fill="#8298ab"/>
    </clipPath>
  </defs>
  <g id="Group_265" data-name="Group 265" transform="translate(-850 -3088)">
    <g id="Group_209" data-name="Group 209" transform="translate(850 3088)">
      <g id="Group_8" data-name="Group 8" clip-path="url(#clip-path)">
        <path id="Path_26" data-name="Path 26" d="M25.644,30.769c-1.672.034-2.339-.258-4.092-1.385l-.009-.01H6.025V27.8h15.49a6.291,6.291,0,0,1,4.129-1.4c2.191,0,3.968.979,3.968,2.186s-1.777,2.141-3.968,2.186M9.993,4.865l7.825,12.394,7.8-12.371,2.352,17.551H24.536l-.883-8.685L17.8,23.117,11.96,13.844l-.837,8.595H7.663ZM35.637,0H0V35.636H35.637Z" fill="#8298ab"/>
        <path id="Path_27" data-name="Path 27" d="M67.007,38.629H0v8.56H3.874a9.46,9.46,0,0,1,18.305,0H44.228a9.46,9.46,0,0,1,18.305,0h4.474Z" fill="#8298ab"/>
        <path id="Path_28" data-name="Path 28" d="M6.427,52.382a7.159,7.159,0,0,0,13.339-5.193H6.287a7.121,7.121,0,0,0,.14,5.193" fill="#8298ab"/>
        <path id="Path_29" data-name="Path 29" d="M17.582,44.067A7.213,7.213,0,0,0,16.44,43.3a7.171,7.171,0,0,0-10.014,3.51c-.052.125-.094.255-.14.383h13.48a7.179,7.179,0,0,0-2.184-3.122" fill="#8298ab"/>
        <path id="Path_30" data-name="Path 30" d="M60.12,47.189H46.64a7.16,7.16,0,0,0,11.3,7.932c.176-.146.346-.3.508-.463a7.127,7.127,0,0,0,1.675-7.469" fill="#8298ab"/>
        <path id="Path_31" data-name="Path 31" d="M41.224,24.53V10.756h9.382L60.461,24.53Zm25.434,3.617L52.158,7.882h-13.8V35.636h28.3Z" fill="#8298ab"/>
      </g>
    </g>
    <circle id="Ellipse_68" data-name="Ellipse 68" cx="7.5" cy="7.5" r="7.5" transform="translate(896 3130)" fill="#8298ab"/>
    <circle id="Ellipse_69" data-name="Ellipse 69" cx="7.5" cy="7.5" r="7.5" transform="translate(855 3130)" fill="#8298ab"/>
  </g>
</svg>
