<svg width="20" height="17" viewBox="0 0 20 17" fill="none" xmlns="http://www.w3.org/2000/svg">
<path d="M4 7.65685C4 6.83935 4 6.4306 4.15224 6.06306C4.30448 5.69552 4.59351 5.40649 5.17157 4.82843L5.82843 4.17157C6.40649 3.59351 6.69552 3.30448 7.06306 3.15224C7.4306 3 7.83935 3 8.65685 3H11.3431C12.1606 3 12.5694 3 12.9369 3.15224C13.3045 3.30448 13.5935 3.59351 14.1716 4.17157L14.8284 4.82843C15.4065 5.40649 15.6955 5.69552 15.8478 6.06306C16 6.4306 16 6.83935 16 7.65685V12C16 13.8856 16 14.8284 15.4142 15.4142C14.8284 16 13.8856 16 12 16H8C6.11438 16 5.17157 16 4.58579 15.4142C4 14.8284 4 13.8856 4 12V7.65685Z" stroke="#222222"/>
<path d="M7 3L4.13868 1.09245C4.0547 1.03647 3.9453 1.03647 3.86132 1.09245L1.25373 2.83084C1.12247 2.91835 1.10408 3.10408 1.21563 3.21563L3.79289 5.79289C3.9255 5.9255 4 6.10536 4 6.29289V6.29289C4 6.68342 4.31658 7 4.70711 7H15.2929C15.6834 7 16 6.68342 16 6.29289V6.29289C16 6.10536 16.0745 5.9255 16.2071 5.79289L18.7844 3.21563C18.8959 3.10408 18.8775 2.91835 18.7463 2.83084L16.1387 1.09245C16.0547 1.03647 15.9453 1.03647 15.8613 1.09245L13 3" stroke="#222222" stroke-linecap="round"/>
</svg>
