<svg xmlns="http://www.w3.org/2000/svg" xmlns:xlink="http://www.w3.org/1999/xlink" width="230" height="46.873" viewBox="0 0 230 46.873">
  <defs>
    <clipPath id="clip-path">
      <rect id="Rectangle_8113" data-name="Rectangle 8113" width="223.201" height="46.097" fill="#fff"/>
    </clipPath>
  </defs>
  <g id="Group_416" data-name="Group 416" transform="translate(-608 -2600)">
    <g id="Group_415" data-name="Group 415" transform="translate(608 2600.776)">
      <g id="Group_414" data-name="Group 414" clip-path="url(#clip-path)">
        <path id="Path_387" data-name="Path 387" d="M469.509,99.645c-.021-.056-.039-.158-.064-.16-.265-.021-.535,0-.8-.042a5.925,5.925,0,0,0-.736-.179,5.018,5.018,0,0,1-1.922-.631,17.869,17.869,0,0,1-2.162-1.166c-.661-.4-1.29-.866-1.932-1.307-.191-.131-.375-.274-.573-.419H422.3l-.269-.278v-3.95l.235-.256h38.981c1.078-.737,2.051-1.475,3.09-2.08a13.133,13.133,0,0,1,1.362-.666c.669-.292,1.37-.494,2.055-.744.351-.128.765.084,1.075-.246,1.3.06,2.582-.368,3.881-.184a6.381,6.381,0,0,0,1.456.186,6.55,6.55,0,0,1,1.45.233,11.166,11.166,0,0,1,2.057.71,7.015,7.015,0,0,1,1.291.624,9.588,9.588,0,0,1,1.14.782,4.639,4.639,0,0,1,1.836,2.622,3.847,3.847,0,0,1-.092,2.446,5.478,5.478,0,0,1-2.243,2.537,10.014,10.014,0,0,1-2.037,1.027,17.83,17.83,0,0,1-2.059.707,4.586,4.586,0,0,1-1.9.244c-.123-.023-.319-.081-.322.189h-3.778" transform="translate(-258.889 -53.548)" fill="#fff"/>
        <path id="Path_388" data-name="Path 388" d="M6.853,99.088,5.97,97.149H2.048l-.894,1.939H0l4-8.541,4.009,8.541Zm-2.669-5.85A4.453,4.453,0,0,1,4,92.769a3.883,3.883,0,0,1-.174.469L2.462,96.2H5.534Z" transform="translate(0 -55.545)" fill="#fff"/>
        <path id="Path_389" data-name="Path 389" d="M35.509,99.554V91.307h1.71c1.678,0,3.181.578,3.181,2.44,0,1.58-1,2.68-3.17,2.68h-.676v3.126Zm1.7-4.053c1.329,0,2.1-.676,2.1-1.743,0-1.013-.762-1.515-1.82-1.515h-.937V95.5Z" transform="translate(-21.783 -56.011)" fill="#fff"/>
        <path id="Path_390" data-name="Path 390" d="M59.734,91.308H60.78v7.3a4.189,4.189,0,0,1-3.192,1.122,2.851,2.851,0,0,1-3.17-3.17V91.308h1.046v4.717c0,2.048.654,2.756,2.375,2.756a3.126,3.126,0,0,0,1.9-.555Z" transform="translate(-33.382 -56.012)" fill="#fff"/>
        <path id="Path_391" data-name="Path 391" d="M83.508,99.554,80.24,96.308h-.316v3.246H78.878V91.307h1.645c1.416,0,3.247.425,3.247,2.44a2.519,2.519,0,0,1-2.375,2.506l3.585,3.3Zm-3-4.173c1.416,0,2.168-.687,2.168-1.623,0-1.035-.73-1.515-1.95-1.515h-.806v3.138Z" transform="translate(-48.387 -56.011)" fill="#fff"/>
        <path id="Path_392" data-name="Path 392" d="M99.226,99.572V91.336h4.412v.926h-3.367v2.473h2.724v.926h-2.724v3.911Z" transform="translate(-60.869 -56.029)" fill="#fff"/>
        <path id="Path_393" data-name="Path 393" d="M119.778,99.459a4.289,4.289,0,1,1,0-8.574,4.291,4.291,0,0,1,4.4,4.325,4.352,4.352,0,0,1-4.4,4.249m0-7.626a3.272,3.272,0,0,0-3.334,3.3,3.373,3.373,0,0,0,3.258,3.388,3.345,3.345,0,0,0,.076-6.689" transform="translate(-70.757 -55.753)" fill="#fff"/>
        <path id="Path_394" data-name="Path 394" d="M148.1,99.459a4.289,4.289,0,1,1,0-8.574,4.291,4.291,0,0,1,4.4,4.325,4.352,4.352,0,0,1-4.4,4.249m0-7.626a3.272,3.272,0,0,0-3.334,3.3,3.373,3.373,0,0,0,3.258,3.388,3.345,3.345,0,0,0,.076-6.689" transform="translate(-88.131 -55.753)" fill="#fff"/>
        <path id="Path_395" data-name="Path 395" d="M173.314,99.555V91.308h2.113c2.44,0,4.456,1.427,4.456,4.129,0,2.582-1.83,4.118-4.543,4.118Zm2.026-.926c1.95,0,3.431-.969,3.431-3.225a3.053,3.053,0,0,0-3.312-3.159h-1.1v6.384Z" transform="translate(-106.318 -56.012)" fill="#fff"/>
        <path id="Path_396" data-name="Path 396" d="M195.8,97.567a2.863,2.863,0,0,0,2.125.926,1.377,1.377,0,0,0,1.558-1.34c0-2.157-3.759-1.634-3.759-4.151a2.211,2.211,0,0,1,2.44-2.146,3.213,3.213,0,0,1,2.168.861l-.545.762a2.345,2.345,0,0,0-1.612-.686c-.709,0-1.362.36-1.362,1.133,0,1.776,3.791,1.3,3.791,4.216a2.493,2.493,0,0,1-2.767,2.3,3.732,3.732,0,0,1-2.6-1.111Z" transform="translate(-119.767 -55.735)" fill="#fff"/>
        <path id="Path_397" data-name="Path 397" d="M214.34,92.391a1.814,1.814,0,1,1,1.817,1.811,1.814,1.814,0,0,1-1.817-1.811m3.259,0a1.445,1.445,0,1,0-1.442,1.455,1.464,1.464,0,0,0,1.442-1.455m-1,.9-.648-.661-.1-.1v.762h-.381V91.349h.559c.439,0,.889.172.889.642a.61.61,0,0,1-.553.6l.718.7Zm-.584-.934c.362,0,.533-.146.533-.368,0-.191-.178-.318-.47-.318h-.229v.686Z" transform="translate(-131.485 -55.57)" fill="#fff"/>
        <path id="Path_398" data-name="Path 398" d="M250.3,98.4a4.075,4.075,0,0,1-2.843,1.057A4.323,4.323,0,0,1,243,95.177a4.266,4.266,0,0,1,4.38-4.292A4.112,4.112,0,0,1,250.272,92l-.578.73a3.313,3.313,0,0,0-5.578,2.506,3.315,3.315,0,0,0,3.356,3.29,3.453,3.453,0,0,0,2.353-.806Z" transform="translate(-149.069 -55.753)" fill="#fff"/>
        <path id="Path_399" data-name="Path 399" d="M270.716,99.459a4.289,4.289,0,1,1,0-8.574,4.291,4.291,0,0,1,4.4,4.325,4.352,4.352,0,0,1-4.4,4.249m0-7.626a3.272,3.272,0,0,0-3.334,3.3,3.373,3.373,0,0,0,3.258,3.388,3.345,3.345,0,0,0,.076-6.689" transform="translate(-163.348 -55.753)" fill="#fff"/>
        <path id="Path_400" data-name="Path 400" d="M303.184,99.192l-.523-4.9c-.011-.1-.011-.327-.011-.414-.022.065-.119.24-.185.37l-2.876,5.262L296.7,94.256a4.065,4.065,0,0,1-.185-.392,1.751,1.751,0,0,1,.011.425l-.5,4.9h-1.111l.981-8.476,3.562,6.384a1.282,1.282,0,0,1,.142.349,2.8,2.8,0,0,1,.142-.349l3.551-6.373.992,8.465Z" transform="translate(-180.913 -55.649)" fill="#fff"/>
        <path id="Path_401" data-name="Path 401" d="M326.225,99.554V91.307h1.71c1.678,0,3.181.578,3.181,2.44,0,1.58-1,2.68-3.17,2.68h-.676v3.126Zm1.7-4.053c1.329,0,2.1-.676,2.1-1.743,0-1.013-.762-1.515-1.82-1.515h-.937V95.5Z" transform="translate(-200.12 -56.011)" fill="#fff"/>
        <path id="Path_402" data-name="Path 402" d="M348.012,99.088l-.883-1.939h-3.922l-.894,1.939h-1.155l4-8.541,4.009,8.541Zm-2.669-5.85a4.454,4.454,0,0,1-.185-.469,3.877,3.877,0,0,1-.174.469L343.621,96.2h3.072Z" transform="translate(-209.281 -55.545)" fill="#fff"/>
        <path id="Path_403" data-name="Path 403" d="M368.094,93.283l.01,5.927h-1.046l.011-8.465L373.3,97.02l-.011-6.057h1.046l-.011,8.541Z" transform="translate(-225.169 -55.666)" fill="#fff"/>
        <path id="Path_404" data-name="Path 404" d="M393.895,99.555V96.014l-2.855-4.706h1.177l2.157,3.7a.606.606,0,0,1,.066.272.58.58,0,0,1,.076-.272l2.179-3.7h1.155l-2.909,4.706v3.541Z" transform="translate(-239.88 -56.012)" fill="#fff"/>
        <path id="Path_405" data-name="Path 405" d="M23.145,21.756,22.1,11.45,15.148,22.561l-6.924-11-.993,10.2H3.124L5.888.9,15.175,15.61,24.433.929l2.791,20.826Z" transform="translate(-1.916 -0.554)" fill="#fff"/>
        <path id="Path_406" data-name="Path 406" d="M166.581,21.756,165.534,11.45l-6.951,11.111-6.924-11-.993,10.2H146.56L149.324.9,158.61,15.61,167.869.929l2.791,20.826Z" transform="translate(-89.906 -0.554)" fill="#fff"/>
        <path id="Path_407" data-name="Path 407" d="M324.7,21.756,323.651,11.45,316.7,22.561l-6.924-11-.993,10.2h-4.106L307.441.9l9.286,14.707L325.986.929l2.791,20.826Z" transform="translate(-186.901 -0.554)" fill="#fff"/>
        <path id="Path_408" data-name="Path 408" d="M377.679,22.623V2.36h12.077V5.8h-8.266V10.17h6.656v3.462h-6.656v5.529h9.1v3.462Z" transform="translate(-231.684 -1.448)" fill="#fff"/>
        <path id="Path_409" data-name="Path 409" d="M437.579,21.2l-1.772-3.731H426.6L424.832,21.2h-4.241L431.219,0l10.628,21.2ZM431.192,7.837l-3.033,6.441h6.119Z" transform="translate(-258.008)" fill="#fff"/>
        <path id="Path_410" data-name="Path 410" d="M484.381,22.581V2.291h3.811V19.119h8.481v3.462Z" transform="translate(-297.139 -1.406)" fill="#fff"/>
        <path id="Path_411" data-name="Path 411" d="M532.246,16.661a8.027,8.027,0,0,0,5.233,2.2c2.067,0,3.167-.966,3.167-2.442,0-4.294-9.017-3.623-9.017-9.822,0-3.623,3.247-5.556,6.629-5.556a8.614,8.614,0,0,1,5.77,2.362l-1.852,2.845a5.843,5.843,0,0,0-3.891-1.8c-1.369,0-2.684.591-2.684,1.986,0,3.569,9.1,2.764,9.1,9.93,0,3.14-2.764,5.931-7.515,5.931a10.8,10.8,0,0,1-6.924-2.9Z" transform="translate(-325.283 -0.639)" fill="#fff"/>
        <path id="Path_412" data-name="Path 412" d="M231.4,16.661a8.027,8.027,0,0,0,5.233,2.2c2.067,0,3.167-.966,3.167-2.442,0-4.294-9.017-3.623-9.017-9.822,0-3.623,3.247-5.556,6.629-5.556a8.614,8.614,0,0,1,5.77,2.362l-1.852,2.845a5.843,5.843,0,0,0-3.891-1.8c-1.369,0-2.684.591-2.684,1.986,0,3.569,9.1,2.764,9.1,9.93,0,3.14-2.764,5.931-7.515,5.931a10.8,10.8,0,0,1-6.924-2.9Z" transform="translate(-140.729 -0.639)" fill="#fff"/>
        <path id="Path_413" data-name="Path 413" d="M88.718,22.34a10.91,10.91,0,0,1-11.165-10.6A10.915,10.915,0,0,1,88.718,1.111,10.773,10.773,0,0,1,99.8,11.819c0,5.77-5.1,10.52-11.084,10.52m0-17.793a7.084,7.084,0,0,0-7.112,7.085c0,3.811,3.14,7.3,6.924,7.3a7.113,7.113,0,0,0,7.192-7.139,7.1,7.1,0,0,0-7-7.246" transform="translate(-47.574 -0.682)" fill="#fff"/>
      </g>
    </g>
    <text id="_" data-name="®" transform="translate(830 2609)" fill="#fff" font-size="8" font-family="SegoeUI-Semibold, Segoe UI" font-weight="600"><tspan x="0" y="0">®</tspan></text>
  </g>
</svg>
